<svg width="885" height="137" viewBox="0 0 885 137" fill="none" xmlns="http://www.w3.org/2000/svg">
<path d="M199.422 72.3488H185.109V97H177.031V36.0625H197.204C204.068 36.0625 209.342 37.625 213.025 40.75C216.735 43.875 218.591 48.423 218.591 54.394C218.591 58.1886 217.559 61.495 215.494 64.3131C213.457 67.1311 210.611 69.2377 206.956 70.6328L221.27 96.4978V97H212.648L199.422 72.3488ZM185.109 65.7779H197.455C201.445 65.7779 204.612 64.7455 206.956 62.6808C209.328 60.6161 210.513 57.8538 210.513 54.394C210.513 50.6272 209.383 47.7394 207.123 45.7305C204.891 43.7215 201.655 42.7031 197.414 42.6752H185.109V65.7779ZM247.469 97.8371C241.331 97.8371 236.336 95.8281 232.486 91.8103C228.636 87.7645 226.71 82.3655 226.71 75.6133V74.1903C226.71 69.6981 227.561 65.6942 229.263 62.1786C230.993 58.635 233.393 55.8728 236.462 53.8917C239.559 51.8828 242.907 50.8783 246.507 50.8783C252.394 50.8783 256.97 52.8175 260.234 56.6959C263.499 60.5742 265.131 66.1267 265.131 73.3532V76.5759H234.453C234.565 81.0402 235.862 84.6535 238.345 87.4157C240.857 90.1501 244.037 91.5173 247.888 91.5173C250.622 91.5173 252.938 90.9593 254.835 89.8432C256.733 88.7271 258.393 87.2483 259.816 85.4068L264.545 89.0898C260.751 94.9213 255.059 97.8371 247.469 97.8371ZM246.507 57.24C243.382 57.24 240.759 58.3839 238.638 60.6719C236.518 62.9319 235.206 66.1127 234.704 70.2143H257.388V69.6283C257.165 65.6942 256.105 62.6529 254.208 60.5045C252.31 58.3281 249.743 57.24 246.507 57.24ZM300.497 84.9883C300.497 82.8956 299.701 81.2773 298.111 80.1334C296.549 78.9615 293.8 77.957 289.866 77.12C285.96 76.2829 282.849 75.2785 280.533 74.1066C278.245 72.9347 276.543 71.5396 275.427 69.9213C274.339 68.303 273.795 66.3778 273.795 64.1456C273.795 60.4347 275.357 57.2958 278.482 54.7288C281.635 52.1618 285.653 50.8783 290.536 50.8783C295.67 50.8783 299.827 52.2037 303.008 54.8544C306.217 57.505 307.821 60.8951 307.821 65.0246H300.036C300.036 62.904 299.129 61.0765 297.316 59.5419C295.53 58.0073 293.27 57.24 290.536 57.24C287.718 57.24 285.513 57.8538 283.923 59.0815C282.333 60.3092 281.537 61.9135 281.537 63.8945C281.537 65.764 282.277 67.173 283.756 68.1217C285.234 69.0703 287.899 69.9771 291.749 70.8421C295.628 71.707 298.767 72.7394 301.166 73.9392C303.566 75.139 305.338 76.5898 306.482 78.2919C307.653 79.966 308.239 82.0167 308.239 84.4442C308.239 88.49 306.621 91.7405 303.384 94.1959C300.148 96.6233 295.949 97.8371 290.787 97.8371C287.16 97.8371 283.951 97.1953 281.161 95.9118C278.371 94.6283 276.18 92.8426 274.59 90.5547C273.027 88.2388 272.246 85.7416 272.246 83.0631H279.989C280.128 85.6579 281.161 87.7227 283.086 89.2573C285.039 90.764 287.606 91.5173 290.787 91.5173C293.717 91.5173 296.06 90.9314 297.818 89.7595C299.604 88.5597 300.497 86.9693 300.497 84.9883ZM346.283 92.5218C343.27 96.0653 338.848 97.8371 333.016 97.8371C328.189 97.8371 324.506 96.442 321.967 93.6518C319.456 90.8337 318.186 86.6763 318.158 81.1797V51.7154H325.901V80.9704C325.901 87.8343 328.691 91.2662 334.272 91.2662C340.187 91.2662 344.121 89.0619 346.074 84.6535V51.7154H353.817V97H346.451L346.283 92.5218ZM372.902 51.7154L373.111 56.7377C376.431 52.8315 380.91 50.8783 386.546 50.8783C392.879 50.8783 397.19 53.3058 399.478 58.1607C400.985 55.9844 402.938 54.2266 405.338 52.8873C407.765 51.548 410.625 50.8783 413.917 50.8783C423.85 50.8783 428.901 56.1378 429.068 66.6568V97H421.325V67.1172C421.325 63.8806 420.586 61.4671 419.107 59.8767C417.628 58.2584 415.145 57.4492 411.657 57.4492C408.783 57.4492 406.398 58.3142 404.501 60.0441C402.603 61.7461 401.501 64.048 401.194 66.9498V97H393.41V67.3265C393.41 60.7416 390.187 57.4492 383.742 57.4492C378.664 57.4492 375.19 59.6116 373.32 63.9364V97H365.578V51.7154H372.902ZM459.579 97.8371C453.44 97.8371 448.446 95.8281 444.595 91.8103C440.745 87.7645 438.82 82.3655 438.82 75.6133V74.1903C438.82 69.6981 439.671 65.6942 441.373 62.1786C443.103 58.635 445.502 55.8728 448.571 53.8917C451.669 51.8828 455.017 50.8783 458.616 50.8783C464.503 50.8783 469.079 52.8175 472.344 56.6959C475.608 60.5742 477.241 66.1267 477.241 73.3532V76.5759H446.563C446.674 81.0402 447.972 84.6535 450.455 87.4157C452.966 90.1501 456.147 91.5173 459.997 91.5173C462.732 91.5173 465.047 90.9593 466.945 89.8432C468.842 88.7271 470.502 87.2483 471.925 85.4068L476.655 89.0898C472.86 94.9213 467.168 97.8371 459.579 97.8371ZM458.616 57.24C455.491 57.24 452.868 58.3839 450.748 60.6719C448.627 62.9319 447.316 66.1127 446.814 70.2143H469.498V69.6283C469.275 65.6942 468.214 62.6529 466.317 60.5045C464.42 58.3281 461.853 57.24 458.616 57.24ZM505.658 73.981C505.658 66.9219 507.291 61.3136 510.555 57.1562C513.82 52.971 518.145 50.8783 523.53 50.8783C529.054 50.8783 533.365 52.8315 536.462 56.7377L536.839 51.7154H543.912V95.9118C543.912 101.771 542.168 106.389 538.68 109.765C535.22 113.141 530.561 114.829 524.701 114.829C521.437 114.829 518.242 114.132 515.117 112.737C511.992 111.342 509.607 109.43 507.96 107.003L511.978 102.357C515.299 106.459 519.358 108.509 524.157 108.509C527.924 108.509 530.854 107.449 532.946 105.329C535.067 103.208 536.127 100.223 536.127 96.3722V92.4799C533.03 96.0513 528.803 97.8371 523.446 97.8371C518.145 97.8371 513.848 95.7026 510.555 91.4336C507.291 87.1646 505.658 81.3471 505.658 73.981ZM513.443 74.8599C513.443 79.966 514.489 83.9838 516.582 86.9135C518.675 89.8153 521.604 91.2662 525.371 91.2662C530.254 91.2662 533.839 89.048 536.127 84.6116V63.9364C533.756 59.6116 530.198 57.4492 525.455 57.4492C521.688 57.4492 518.744 58.9141 516.624 61.8437C514.503 64.7734 513.443 69.1122 513.443 74.8599ZM574.422 97.8371C568.284 97.8371 563.29 95.8281 559.439 91.8103C555.589 87.7645 553.664 82.3655 553.664 75.6133V74.1903C553.664 69.6981 554.515 65.6942 556.217 62.1786C557.946 58.635 560.346 55.8728 563.415 53.8917C566.512 51.8828 569.86 50.8783 573.46 50.8783C579.347 50.8783 583.923 52.8175 587.188 56.6959C590.452 60.5742 592.084 66.1267 592.084 73.3532V76.5759H561.406C561.518 81.0402 562.815 84.6535 565.299 87.4157C567.81 90.1501 570.991 91.5173 574.841 91.5173C577.575 91.5173 579.891 90.9593 581.789 89.8432C583.686 88.7271 585.346 87.2483 586.769 85.4068L591.498 89.0898C587.704 94.9213 582.012 97.8371 574.422 97.8371ZM573.46 57.24C570.335 57.24 567.712 58.3839 565.592 60.6719C563.471 62.9319 562.16 66.1127 561.657 70.2143H584.342V69.6283C584.118 65.6942 583.058 62.6529 581.161 60.5045C579.263 58.3281 576.696 57.24 573.46 57.24ZM608.407 51.7154L608.658 57.4074C612.118 53.0547 616.638 50.8783 622.218 50.8783C631.789 50.8783 636.616 56.2773 636.699 67.0753V97H628.956V67.0335C628.929 63.769 628.175 61.3555 626.696 59.793C625.246 58.2305 622.972 57.4492 619.874 57.4492C617.363 57.4492 615.159 58.1189 613.262 59.4581C611.364 60.7974 609.886 62.5552 608.825 64.7316V97H601.083V51.7154H608.407ZM667.168 97.8371C661.03 97.8371 656.035 95.8281 652.185 91.8103C648.334 87.7645 646.409 82.3655 646.409 75.6133V74.1903C646.409 69.6981 647.26 65.6942 648.962 62.1786C650.692 58.635 653.092 55.8728 656.161 53.8917C659.258 51.8828 662.606 50.8783 666.205 50.8783C672.093 50.8783 676.669 52.8175 679.933 56.6959C683.198 60.5742 684.83 66.1267 684.83 73.3532V76.5759H654.152C654.263 81.0402 655.561 84.6535 658.044 87.4157C660.555 90.1501 663.736 91.5173 667.587 91.5173C670.321 91.5173 672.637 90.9593 674.534 89.8432C676.431 88.7271 678.092 87.2483 679.515 85.4068L684.244 89.0898C680.449 94.9213 674.757 97.8371 667.168 97.8371ZM666.205 57.24C663.08 57.24 660.458 58.3839 658.337 60.6719C656.217 62.9319 654.905 66.1127 654.403 70.2143H677.087V69.6283C676.864 65.6942 675.804 62.6529 673.906 60.5045C672.009 58.3281 669.442 57.24 666.205 57.24ZM715.717 58.6629C714.545 58.4676 713.276 58.37 711.908 58.37C706.83 58.37 703.384 60.5324 701.571 64.8571V97H693.828V51.7154H701.362L701.487 56.947C704.026 52.9012 707.626 50.8783 712.285 50.8783C713.792 50.8783 714.936 51.0737 715.717 51.4643V58.6629ZM749.157 97C748.711 96.1071 748.348 94.5167 748.069 92.2288C744.47 95.9676 740.173 97.8371 735.179 97.8371C730.714 97.8371 727.045 96.5815 724.171 94.0703C721.325 91.5312 719.902 88.3225 719.902 84.4442C719.902 79.7288 721.688 76.0737 725.259 73.4788C728.859 70.856 733.909 69.5446 740.41 69.5446H747.944V65.9872C747.944 63.2807 747.134 61.1323 745.516 59.5419C743.898 57.9235 741.512 57.1144 738.359 57.1144C735.597 57.1144 733.281 57.8119 731.412 59.207C729.542 60.6021 728.608 62.2902 728.608 64.2712H720.823C720.823 62.0112 721.618 59.8348 723.209 57.7422C724.827 55.6217 727.003 53.9475 729.738 52.7199C732.5 51.4922 735.527 50.8783 738.82 50.8783C744.037 50.8783 748.125 52.1897 751.083 54.8125C754.04 57.4074 755.575 60.9927 755.686 65.5686V86.4113C755.686 90.5686 756.217 93.875 757.277 96.3304V97H749.157ZM736.309 91.0988C738.736 91.0988 741.038 90.471 743.214 89.2154C745.391 87.9598 746.967 86.3276 747.944 84.3186V75.0273H741.875C732.388 75.0273 727.645 77.8036 727.645 83.356C727.645 85.7835 728.454 87.6808 730.073 89.048C731.691 90.4152 733.77 91.0988 736.309 91.0988ZM778.329 40.75V51.7154H786.783V57.7003H778.329V85.7835C778.329 87.5971 778.705 88.9643 779.459 89.885C780.212 90.7779 781.496 91.2243 783.309 91.2243C784.202 91.2243 785.43 91.0569 786.992 90.7221V97C784.955 97.558 782.974 97.8371 781.049 97.8371C777.589 97.8371 774.98 96.7907 773.223 94.6981C771.465 92.6055 770.586 89.6339 770.586 85.7835V57.7003H762.341V51.7154H770.586V40.75H778.329ZM792.977 73.9392C792.977 69.5028 793.842 65.5128 795.572 61.9693C797.33 58.4258 799.757 55.6914 802.854 53.7662C805.979 51.841 809.537 50.8783 813.527 50.8783C819.693 50.8783 824.674 53.0128 828.468 57.2818C832.291 61.5508 834.202 67.2288 834.202 74.3158V74.8599C834.202 79.2684 833.351 83.2305 831.649 86.7461C829.975 90.2338 827.561 92.9542 824.408 94.9074C821.283 96.8605 817.684 97.8371 813.61 97.8371C807.472 97.8371 802.492 95.7026 798.669 91.4336C794.874 87.1646 792.977 81.5145 792.977 74.4833V73.9392ZM800.762 74.8599C800.762 79.8823 801.92 83.9141 804.235 86.9554C806.579 89.9967 809.704 91.5173 813.61 91.5173C817.545 91.5173 820.67 89.9827 822.985 86.9135C825.301 83.8164 826.459 79.4916 826.459 73.9392C826.459 68.9727 825.273 64.9548 822.902 61.8856C820.558 58.7885 817.433 57.24 813.527 57.24C809.704 57.24 806.621 58.7606 804.277 61.8019C801.934 64.8432 800.762 69.1959 800.762 74.8599ZM865.801 58.6629C864.629 58.4676 863.359 58.37 861.992 58.37C856.914 58.37 853.468 60.5324 851.655 64.8571V97H843.912V51.7154H851.445L851.571 56.947C854.11 52.9012 857.709 50.8783 862.369 50.8783C863.876 50.8783 865.02 51.0737 865.801 51.4643V58.6629Z" fill="#D8DADC"/>
<path d="M82.9811 5.11009L82.9519 5.07999C82.4009 4.51261 81.642 4.19516 80.8511 4.20428C80.7434 4.19972 80.6349 4.20884 80.5309 4.23439H33.4863C25.1068 4.23712 18.3155 11.0293 18.311 19.4097V117.465C18.3155 125.845 25.1068 132.636 33.4863 132.64H101.717C110.097 132.636 116.889 125.845 116.892 117.465V40.1585C116.886 39.3849 116.584 38.6433 116.046 38.0869L82.9811 5.11009ZM83.7692 14.1271L106.999 37.2978H93.1073C87.9562 37.2832 83.7838 33.1108 83.7692 27.9597V14.1271ZM101.717 126.745H33.4863C28.3342 126.73 24.1636 122.558 24.1472 117.406V19.3504C24.1636 14.2001 28.3342 10.0277 33.4863 10.0113H77.9321V27.9597C77.9366 36.3391 84.7288 43.1313 93.1073 43.135H111.056V117.406C111.051 122.563 106.873 126.74 101.717 126.745Z" fill="#D8DADC"/>
<path d="M39.2067 85.48H75.5695C77.1805 85.48 78.4876 84.1737 78.4876 82.5619C78.4876 80.95 77.1805 79.6438 75.5695 79.6438H39.2067C37.5948 79.6438 36.2877 80.95 36.2877 82.5619C36.2877 84.1737 37.5948 85.48 39.2067 85.48Z" fill="#D8DADC"/>
<path d="M95.9972 101.735H39.2067C37.5948 101.735 36.2877 103.042 36.2877 104.653C36.2877 106.265 37.5948 107.572 39.2067 107.572H95.9972C97.6082 107.572 98.9163 106.265 98.9163 104.653C98.9163 103.042 97.6082 101.735 95.9972 101.735Z" fill="#D8DADC"/>
<path d="M50.8801 46.0248C56.7947 46.0248 61.5902 41.2285 61.5902 35.3147C61.5902 29.3991 56.7947 24.6028 50.8801 24.6028C44.9645 24.6028 40.17 29.3991 40.17 35.3147C40.1727 41.2276 44.9654 46.0202 50.8801 46.0248ZM50.8801 30.4691C53.571 30.4691 55.753 32.6511 55.753 35.343C55.753 38.034 53.571 40.2159 50.8801 40.2159C48.1882 40.2159 46.0062 38.034 46.0062 35.343C46.0108 32.6538 48.1909 30.4737 50.8801 30.4691Z" fill="#D8DADC"/>
<path d="M39.2067 67.8245C40.8158 67.8199 42.1202 66.5155 42.1248 64.9064V62.5711C42.1248 57.7356 46.0436 53.8159 50.88 53.8159C55.7147 53.8159 59.6344 57.7356 59.6344 62.5711V64.9064C59.6344 66.5182 60.9416 67.8245 62.5534 67.8245C64.1653 67.8245 65.4715 66.5182 65.4715 64.9064V62.5711C65.4715 54.5128 58.9384 47.9797 50.88 47.9797C42.8217 47.9797 36.2877 54.5128 36.2877 62.5711V64.9064C36.2922 66.5155 37.5967 67.8199 39.2067 67.8245V67.8245Z" fill="#D8DADC"/>
</svg>
